<svg width="36" height="53" viewBox="0 0 36 53" fill="none" xmlns="http://www.w3.org/2000/svg">
<mask id="mask0_6_284" style="mask-type:alpha" maskUnits="userSpaceOnUse" x="0" y="0" width="36" height="53">
<g clip-path="url(#clip0_6_284)">
<path d="M22.6169 10.5727V10.8312C22.6169 10.8851 22.6169 11.0071 22.6169 10.8312C22.5934 10.9684 22.561 11.1039 22.5198 11.2369C22.4982 11.3123 22.4694 11.3913 22.4407 11.4666C22.4407 11.4272 22.5126 11.3302 22.4407 11.4666C22.3688 11.6031 22.2825 11.7467 22.1926 11.8831C22.0523 12.0913 22.2609 11.8113 22.1602 11.9226C22.1171 11.9728 22.0703 12.0231 22.0236 12.0698C21.9768 12.1164 21.9481 12.1452 21.9085 12.1847C21.869 12.2241 21.6928 12.3642 21.8438 12.2493C21.7367 12.3305 21.6237 12.4037 21.5058 12.4683L21.3656 12.5437C21.2649 12.5903 21.2685 12.5867 21.3656 12.5437C21.3287 12.5617 21.2902 12.5762 21.2505 12.5867C21.1208 12.6309 20.9887 12.6681 20.855 12.698C20.8118 12.698 20.6284 12.7339 20.8046 12.698C20.7327 12.698 20.6608 12.698 20.5889 12.716C20.4464 12.7249 20.3035 12.7249 20.161 12.716C20.0028 12.716 20.366 12.7662 20.1107 12.716L19.8662 12.6585C19.7871 12.637 19.7115 12.6083 19.6324 12.5831C19.4778 12.5113 19.5533 12.558 19.6324 12.5831C19.5088 12.5258 19.3887 12.461 19.2729 12.3893C19.2153 12.3534 19.1614 12.3139 19.1075 12.2744C18.9852 12.1882 19.2477 12.4144 19.0679 12.2421C18.9529 12.1272 18.8378 12.0195 18.7335 11.8831C18.7335 11.8831 18.8342 11.998 18.7335 11.8831L18.6005 11.682L18.5214 11.542C18.5214 11.5205 18.4027 11.28 18.4746 11.4595C18.4235 11.3321 18.3815 11.2014 18.3488 11.0681C18.3488 11.0143 18.3272 10.9604 18.3128 10.9066C18.2984 10.8527 18.3128 10.7989 18.3128 10.9066C18.3091 10.8648 18.3091 10.8227 18.3128 10.7809C18.3039 10.6531 18.3039 10.5247 18.3128 10.3968C18.3128 10.3717 18.3524 10.0988 18.3128 10.2963L18.3452 10.1347C18.3759 10.001 18.4144 9.86916 18.4602 9.73983C18.5394 9.50288 18.3775 9.87266 18.4998 9.65366C18.5394 9.58545 18.5753 9.51006 18.6149 9.44185L18.7263 9.27312C18.7479 9.23722 18.863 9.10439 18.7551 9.23004C18.8417 9.1279 18.9342 9.0308 19.032 8.93924C19.032 8.93924 19.2225 8.7741 19.1219 8.85308C19.0212 8.93206 19.2333 8.77769 19.2261 8.78128C19.3615 8.69192 19.5033 8.61272 19.6504 8.54434C19.4958 8.5946 19.6145 8.56229 19.6504 8.54434C19.7295 8.51921 19.805 8.49049 19.8841 8.46895L20.0459 8.42946C20.0459 8.42946 20.3048 8.38278 20.1718 8.40074C20.0388 8.41869 20.3156 8.40074 20.3084 8.40074H20.5206H20.7363C20.9485 8.40074 20.6464 8.36842 20.8298 8.40074C21.0132 8.43305 21.1498 8.47972 21.308 8.53357C21.5525 8.61614 21.2181 8.4869 21.3548 8.55511L21.6065 8.68794L21.7431 8.7741L21.8726 8.86744C21.797 8.81 21.8006 8.81359 21.8726 8.86744C21.9445 8.92129 22.0595 9.05772 22.1566 9.15106C22.3292 9.32697 22.0739 9.01464 22.2141 9.22286C22.2609 9.28748 22.304 9.35569 22.3472 9.4239C22.3903 9.49211 22.4227 9.5675 22.4622 9.63571C22.5521 9.79727 22.4371 9.52801 22.5018 9.72188C22.5665 9.91574 22.5953 10.0342 22.6348 10.1958C22.6348 10.2281 22.66 10.3717 22.6348 10.1958C22.6348 10.3106 22.6348 10.4255 22.6564 10.5368C22.6564 10.7749 22.7511 11.0031 22.9197 11.1715C23.0883 11.3398 23.3169 11.4343 23.5553 11.4343C23.7937 11.4343 24.0224 11.3398 24.191 11.1715C24.3595 11.0031 24.4543 10.7749 24.4543 10.5368C24.4353 9.71994 24.1693 8.9279 23.6912 8.26474C23.2131 7.60158 22.5453 7.09833 21.7755 6.82111C21.0132 6.54866 20.1858 6.51436 19.4035 6.72278C18.6212 6.9312 17.921 7.37246 17.3959 7.98788C16.9805 8.47559 16.689 9.05624 16.5464 9.68048C16.4038 10.3047 16.4142 10.9541 16.5768 11.5735C16.7394 12.1928 17.0493 12.7638 17.4802 13.238C17.9111 13.7122 18.4503 14.0755 19.052 14.297C19.6536 14.5186 20.3 14.5919 20.936 14.5107C21.5721 14.4295 22.1792 14.1962 22.7056 13.8305C23.2321 13.4649 23.6624 12.9779 23.9599 12.4107C24.2574 11.8435 24.4135 11.213 24.4147 10.5727C24.4147 10.3347 24.32 10.1064 24.1514 9.93808C23.9828 9.76976 23.7542 9.67521 23.5158 9.67521C23.2774 9.67521 23.0487 9.76976 22.8801 9.93808C22.7116 10.1064 22.6169 10.3347 22.6169 10.5727Z" fill="#211915"/>
<path d="M18.2877 9.81162L18.2481 2.0212V0.904696L17.342 1.79503C17.8379 1.78055 18.3342 1.80215 18.827 1.85965L19.1614 1.89555L19.3592 1.92068C19.1542 1.89555 19.2297 1.89914 19.3592 1.92068C19.6432 1.96376 19.9273 2.01402 20.2078 2.06787C20.8698 2.2029 21.523 2.37794 22.1638 2.59202C22.3364 2.64946 22.5234 2.71049 22.678 2.77512L22.9045 2.87205L23.0412 2.92949C23.2605 3.01206 22.9081 2.86846 23.0771 2.92949C23.4367 3.08386 23.7962 3.25259 24.1558 3.43928C24.5154 3.62596 24.875 3.84136 25.2345 4.07113C25.4023 4.18361 25.5677 4.30328 25.7307 4.43013C25.7703 4.45526 26.0579 4.67785 25.8781 4.53783C25.9716 4.60604 26.0615 4.68144 26.1514 4.75324C26.5008 5.0416 26.8344 5.34839 27.151 5.67229C27.3164 5.84102 27.4746 6.01335 27.6292 6.19285L27.8522 6.45133L27.9493 6.5698L28.0463 6.69187C27.9924 6.62365 27.9852 6.61288 28.0212 6.66315C28.6657 7.51777 29.2087 8.44423 29.6392 9.4239C29.7219 9.61417 29.6788 9.51006 29.7579 9.7111C29.837 9.91215 29.8837 10.0306 29.9413 10.1886C30.0563 10.5081 30.1606 10.8276 30.2541 11.1507C30.4635 11.8642 30.6304 12.5895 30.7539 13.3227C31.021 15.0466 31.1113 16.7932 31.0236 18.5355C30.9768 19.6915 32.7747 19.6879 32.8214 18.5355C33.0264 13.3299 31.9728 7.69708 28.0068 3.99932C25.5941 1.7699 22.491 0.52415 19.2801 0.122064C18.6386 0.0274625 17.9903 -0.0133673 17.342 2.33459e-06C17.105 0.00459774 16.879 0.100632 16.7115 0.267963C16.5439 0.435294 16.4477 0.66092 16.4431 0.897516L16.4826 8.68435V9.80444C16.4826 10.9569 18.2805 10.9604 18.2805 9.80444L18.2877 9.81162Z" fill="#211915"/>
<path d="M31.8937 17.6344C27.5106 17.5661 23.1274 17.4477 18.7479 17.4333C16.792 17.3858 14.8389 17.6093 12.9445 18.0975C11.2661 18.5667 9.66581 19.2791 8.19457 20.212C6.52289 21.272 5.04328 22.6073 3.81862 24.1611C3.65572 24.332 3.56487 24.5588 3.56487 24.7947C3.56487 25.0306 3.65572 25.2575 3.81862 25.4284C3.98712 25.5961 4.21533 25.6903 4.45326 25.6903C4.69118 25.6903 4.9194 25.5961 5.08789 25.4284C7.11118 22.8389 9.87689 20.9266 13.0164 19.9464C14.7627 19.4426 16.5744 19.2007 18.3919 19.2283C20.5062 19.2283 22.6169 19.2858 24.7311 19.3181L31.8937 19.4294C33.0479 19.4473 33.0515 17.6523 31.8937 17.6344Z" fill="#211915"/>
<path d="M3.90851 24.1324C1.49324 27.159 0.122286 30.8839 5.56465e-07 34.7518C-0.0888266 38.4494 1.00299 42.0793 3.11746 45.1163C4.29329 46.8127 5.75289 48.2943 7.43228 49.4962C7.53428 49.5556 7.64699 49.5943 7.76399 49.6102C7.88099 49.6261 7.99998 49.6189 8.11417 49.5889C8.22836 49.5589 8.33551 49.5067 8.42951 49.4354C8.52351 49.364 8.60251 49.2749 8.66201 49.173C8.7215 49.0712 8.76033 48.9587 8.77626 48.8419C8.7922 48.725 8.78493 48.6062 8.75488 48.4922C8.72484 48.3782 8.67259 48.2712 8.60113 48.1774C8.52966 48.0835 8.44039 48.0047 8.3384 47.9452C5.65129 46.0057 3.64463 43.2701 2.60347 40.1271C1.56231 36.984 1.53959 33.5933 2.53855 30.4365C3.10393 28.6145 3.9984 26.9111 5.17779 25.4105C5.34092 25.239 5.43188 25.0115 5.43188 24.775C5.43188 24.5385 5.34092 24.3111 5.17779 24.1396C5.00883 23.9727 4.78078 23.8792 4.54315 23.8792C4.30551 23.8792 4.07747 23.9727 3.90851 24.1396V24.1324Z" fill="#211915"/>
<path d="M7.44307 49.4961C10.33 51.4332 13.6639 52.6033 17.1298 52.8959C20.4925 53.2635 23.8929 52.741 26.9892 51.3809C29.9283 50.0763 32.3734 47.869 33.9684 45.0803C35.4765 42.3671 36.167 39.2765 35.9568 36.1806C35.7375 32.8347 34.5689 29.4097 32.2857 26.9039C31.1776 25.7 29.8207 24.7509 28.3089 24.1223C26.7971 23.4938 25.1666 23.2007 23.5302 23.2636C21.8154 23.3443 20.143 23.8222 18.6453 24.6597C17.1475 25.4971 15.8654 26.6711 14.9005 28.0886C13.9575 29.491 13.378 31.1052 13.2142 32.7865C13.0504 34.4677 13.3074 36.1632 13.962 37.7207C14.5981 39.1283 15.5924 40.3449 16.846 41.2494C18.0995 42.1539 19.5685 42.7148 21.1067 42.876C22.7628 43.0443 24.4275 42.6528 25.8344 41.7644C27.2413 40.8759 28.3088 39.5418 28.8662 37.9756C29.1239 37.1839 29.23 36.3509 29.179 35.52C29.1735 35.2837 29.077 35.0586 28.9096 34.8914C28.7422 34.7243 28.5167 34.628 28.2801 34.6225C28.0422 34.6244 27.8147 34.7195 27.6465 34.8875C27.4783 35.0554 27.383 35.2826 27.3811 35.52C27.5645 38.3921 25.328 40.7435 22.5306 41.081C20.0136 41.3862 17.4355 40.004 16.0943 37.9146C14.5733 35.5344 14.6165 32.35 15.9181 29.8836C16.6041 28.6072 17.5831 27.511 18.7749 26.6849C19.9667 25.8587 21.3375 25.326 22.7751 25.1304C24.1651 24.9546 25.5769 25.0888 26.9087 25.5234C28.2405 25.9579 29.4592 26.682 30.477 27.6434C32.5841 29.6251 33.7527 32.5475 34.0943 35.38C34.4335 38.0372 34.0329 40.7364 32.9365 43.1812C31.7686 45.6951 29.8425 47.7814 27.4279 49.1479C22.2932 52.0773 15.4614 51.8009 10.2837 49.1156C9.61487 48.7664 8.96876 48.3755 8.34918 47.9452C8.14255 47.828 7.8982 47.7962 7.66839 47.8566C7.43858 47.917 7.24155 48.0648 7.11946 48.2683C7.00485 48.4752 6.97453 48.7183 7.0348 48.947C7.09507 49.1756 7.24129 49.3723 7.44307 49.4961Z" fill="#211915"/>
</g>
</mask>
<g mask="url(#mask0_6_284)">
<rect width="36" height="53" fill="#71D9A5"/>
</g>
<defs>
<clipPath id="clip0_6_284">
<rect width="36" height="53" fill="white"/>
</clipPath>
</defs>
</svg>
